<svg width="157" height="129" viewBox="0 0 157 129" fill="none" xmlns="http://www.w3.org/2000/svg">
<path d="M76.2339 55.1399C78.5383 53.994 81.3131 54.9562 82.3424 57.3151C86.8136 67.5619 86.9669 76.6435 87.851 79.738C91.3981 66.9439 93.6066 55.829 97.1285 42.8206C100.057 32.0048 102.994 21.2631 105.94 10.5955C107.022 6.67724 110.371 3.80753 114.408 3.33426C118.011 2.91199 121.638 2.48672 125.292 2.05845C126.239 1.94736 127.185 1.83646 128.129 1.72577C135.17 0.900446 140.792 7.45461 138.819 14.263C134.561 28.9548 129.896 44.2088 125.851 58.738C121.192 75.8867 113.876 97.532 108.687 115.367C107.548 119.282 104.207 122.227 100.144 122.562C94.0741 123.061 86.8045 123.139 81.1102 120.998C79.9242 120.552 78.9159 119.747 78.0567 118.816C75.4424 115.982 77.4769 118.49 76.351 116.238C69.851 103.238 67.3131 88.3944 57.6183 70.8549C66.9937 87.9976 60.4144 75.9297 57.6183 70.8549C56.216 68.318 53.5805 68.4202 58.789 65.231C65.2876 61.252 70.8908 57.7968 76.2339 55.1399Z" fill="#13C4FF"/>
<path d="M54.1469 57.3525C55.5385 55.1875 58.3132 55.9562 59.3424 58.3151C63.8137 68.5619 63.9669 77.6435 64.8511 80.738C68.3981 67.9439 70.6066 56.829 74.1286 43.8206C77.0569 33.0048 79.994 22.2631 82.9397 11.5955C84.0217 7.67725 87.3713 4.80754 91.4085 4.33427C95.0106 3.912 98.6383 3.48673 102.292 3.05846C103.239 2.94736 104.185 2.83647 105.13 2.72578C112.17 1.90045 117.792 8.45462 115.819 15.263C111.561 29.9548 106.896 45.2088 102.851 59.738C98.1922 76.8867 90.8764 98.532 85.6867 116.367C84.5476 120.282 81.2071 123.227 77.1437 123.562C71.0742 124.061 63.8046 124.139 58.1103 121.998C56.9243 121.552 55.9159 120.747 55.0568 119.816C52.4425 116.982 54.477 119.49 53.3511 117.238C46.8511 104.238 44.3132 89.3944 34.6184 71.8549C43.9938 88.9976 37.4145 76.9298 34.6184 71.8549C33.2161 69.318 35.0818 86.6891 40.2903 83.5C47.0037 79.3894 49.7331 64.2193 54.1469 57.3525Z" fill="#7024FE"/>
<path d="M27.2339 56.1399C29.5383 54.994 32.3131 55.9562 33.3424 58.3151C37.8136 68.5619 37.9669 77.6435 38.851 80.738C42.3981 67.9439 44.6066 56.829 48.1285 43.8206C51.0568 33.0048 53.9939 22.2631 56.9397 11.5955C58.0216 7.67724 61.3713 4.80753 65.4085 4.33426C69.0105 3.91199 72.6383 3.48672 76.2916 3.05845C77.2393 2.94736 78.1852 2.83646 79.1295 2.72577C86.1698 1.90045 91.7923 8.45461 89.8189 15.263C85.5606 29.9548 80.8964 45.2088 76.851 59.738C72.1921 76.8867 64.8763 98.532 59.6867 116.367C58.5475 120.282 55.2071 123.227 51.1436 123.562C45.0741 124.061 37.8045 124.139 32.1102 121.998C30.9242 121.552 29.9159 120.747 29.0567 119.816C26.4424 116.982 28.4769 119.49 27.351 117.238C20.851 104.238 18.3131 89.3944 8.61835 71.8549C17.9937 88.9976 11.4144 76.9297 8.61835 71.8549C7.216 69.318 4.58045 69.4202 9.78895 66.231C16.2876 62.252 21.8908 58.7968 27.2339 56.1399Z" fill="#00FFA6"/>
</svg>
