<svg width="191" height="52" viewBox="0 0 191 52" fill="none" xmlns="http://www.w3.org/2000/svg">
<path d="M4.04621 12.5314C6.43856 12.5314 8.51145 14.1912 9.0276 16.5272C9.45297 18.4523 9.87834 20.3938 10.3037 22.3516C11.0251 25.672 11.7309 28.961 12.4209 32.2187C13.1424 28.961 13.8637 25.672 14.5852 22.3516C15.0569 20.2707 15.5164 18.2083 15.9635 16.1643C16.4268 14.0465 18.2985 12.5314 20.4663 12.5314C22.6431 12.5314 24.5336 14.0311 25.0248 16.1518C25.497 18.1904 25.9693 20.2413 26.4415 22.3046C27.1943 25.5937 27.9471 28.867 28.6999 32.1248C29.4213 28.867 30.127 25.5937 30.8171 22.3046C31.2652 20.2614 31.7073 18.2303 32.1434 16.2113C32.6068 14.0655 34.5029 12.5314 36.6982 12.5314C38.6551 12.5314 40.1099 14.3419 39.6907 16.2534C38.803 20.3012 37.9151 24.3857 37.0275 28.5068C36.2036 32.3318 35.3797 36.1252 34.5558 39.887C33.9679 42.5714 31.589 44.4822 28.841 44.4822C26.0897 44.4822 23.7068 42.5763 23.089 39.8953C22.7672 38.499 22.4419 37.0991 22.113 35.6957C21.6301 33.6134 18.6229 33.6086 18.1609 35.6957C17.8443 37.111 17.5313 38.5227 17.222 39.9308C16.6388 42.585 14.2915 44.4822 11.574 44.4822C8.88099 44.4822 6.54973 42.6096 5.97348 39.9789C5.14286 36.1869 4.31223 32.3629 3.48162 28.5068C2.61072 24.4637 1.73982 20.4558 0.868916 16.4833C0.423981 14.4537 1.96846 12.5314 4.04621 12.5314ZM52.0056 45.234C50.1865 45.234 48.4928 44.9207 46.9243 44.2942C45.3559 43.6364 43.9915 42.728 42.8311 41.569C41.6707 40.3787 40.7609 39.0004 40.1022 37.4342C39.4748 35.868 39.1613 34.1609 39.1613 32.3127C39.1613 30.4646 39.4748 28.7574 40.1022 27.1912C40.7609 25.625 41.6707 24.2624 42.8311 23.1034C43.9915 21.9444 45.3559 21.0517 46.9243 20.4252C48.4928 19.7673 50.1865 19.4384 52.0056 19.4384C53.8563 19.4384 55.5501 19.7673 57.0869 20.4252C58.6553 21.0517 60.0198 21.9444 61.1802 23.1034C62.3406 24.2624 63.2345 25.625 63.862 27.1912C64.5207 28.7574 64.85 30.4646 64.85 32.3127C64.85 34.1609 64.5207 35.868 63.862 37.4342C63.2345 39.0004 62.3406 40.3787 61.1802 41.569C60.0198 42.728 58.6553 43.6364 57.0869 44.2942C55.5501 44.9207 53.8563 45.234 52.0056 45.234ZM52.0056 38.233C53.5424 38.233 54.7657 37.6848 55.6755 36.5885C56.6164 35.4608 57.0869 34.0355 57.0869 32.3127C57.0869 30.5585 56.6164 29.1489 55.6755 28.0839C54.7657 26.9876 53.5424 26.4394 52.0056 26.4394C50.4688 26.4394 49.2297 26.9876 48.2888 28.0839C47.379 29.1489 46.9243 30.5585 46.9243 32.3127C46.9243 34.0355 47.379 35.4608 48.2888 36.5885C49.2297 37.6848 50.4688 38.233 52.0056 38.233ZM70.7127 44.4822C68.556 44.4822 66.8077 42.7338 66.8077 40.5771C66.8077 37.8523 66.8077 35.1132 66.8077 32.3597C66.8077 29.5834 66.8077 26.8286 66.8077 24.0953C66.8077 21.9385 68.556 20.1902 70.7127 20.1902C71.8009 20.1902 72.8677 20.1902 73.913 20.1902C74.2763 20.1902 74.5707 20.4847 74.5707 20.848C74.5707 21.124 74.8844 21.2879 75.1195 21.1434C75.9508 20.6326 76.8657 20.2365 77.8642 19.9553C77.9372 19.9347 78.0106 19.9151 78.0843 19.8963C80.1827 19.3622 81.8633 21.314 81.8633 23.4793C81.8633 25.4906 80.047 26.8872 78.0741 27.2785C77.4018 27.4119 76.8299 27.6333 76.3586 27.943C75.1666 28.6948 74.5707 29.9321 74.5707 31.6549C74.5707 33.7536 74.5707 35.8837 74.5707 38.045C74.5707 38.9072 74.5707 39.767 74.5707 40.6242C74.5707 42.7549 72.8435 44.4822 70.7127 44.4822ZM87.6283 44.4822C85.4716 44.4822 83.7232 42.7339 83.7232 40.5771C83.7232 36.1901 83.7232 31.7751 83.7232 27.3322C83.7232 22.8892 83.7232 18.4742 83.7232 14.0872C83.7232 11.9305 85.4716 10.1821 87.6283 10.1821C89.759 10.1821 91.4863 11.9094 91.4863 14.0401C91.4863 15.8549 91.4863 17.6856 91.4863 19.5324C91.4863 22.6962 91.4863 25.8129 91.4863 28.8827C92.6155 27.4418 93.7447 26.0009 94.8738 24.56C95.0795 24.2919 95.2851 24.0243 95.4907 23.7573C97.2301 21.4981 99.9269 20.1902 102.778 20.1902C103.605 20.1902 104.209 20.7487 104.264 21.5734C104.357 22.9763 103.983 24.3656 102.825 25.7816C100.181 29.0825 100.082 33.7393 102.524 37.1921C102.703 37.4447 102.882 37.6977 103.06 37.9511C104.339 39.7043 104.806 41.2673 104.67 43.0723C104.607 43.9026 103.987 44.4822 103.154 44.4822C100.265 44.4822 97.5589 43.0704 95.8966 40.7069C95.6037 40.2905 95.3098 39.873 95.015 39.4546C93.823 37.7318 92.6467 36.0403 91.4863 34.3801C91.4863 36.0403 91.4863 37.7318 91.4863 39.4546C91.4863 39.8453 91.4863 40.2352 91.4863 40.6242C91.4863 42.7549 89.759 44.4822 87.6283 44.4822ZM126.678 34.85C126.678 37.2306 126.05 39.1727 124.796 40.6763C123.573 42.1485 121.91 43.2135 119.809 43.8714C117.739 44.5292 115.417 44.8111 112.845 44.7171C111.556 44.6857 110.254 44.5715 108.94 44.3747C106.582 44.0212 104.988 41.8862 104.988 39.5016C104.988 37.5334 106.941 36.1713 108.858 36.617C109.839 36.8449 110.776 37.0077 111.669 37.1053C113.677 37.3246 115.276 37.2463 116.468 36.8704C117.66 36.4632 118.256 35.7897 118.256 34.85C118.256 34.1922 117.927 33.6596 117.268 33.2524C116.609 32.8139 115.747 32.4224 114.68 32.0778C113.645 31.7332 112.547 31.3417 111.387 30.9031C110.226 30.4333 109.113 29.8537 108.046 29.1646C107.011 28.4442 106.164 27.5201 105.506 26.3924C104.847 25.2334 104.518 23.7925 104.518 22.0697C104.518 19.9396 105.082 18.1385 106.212 16.6662C107.341 15.194 108.862 14.082 110.775 13.3302C112.72 12.5784 114.916 12.2025 117.362 12.2025C118.584 12.2025 119.825 12.2939 121.084 12.4767C123.451 12.82 125.031 14.9794 125.031 17.371C125.031 18.718 125.031 20.0649 125.031 21.4119C122.836 20.4721 120.813 19.9083 118.962 19.7204C117.143 19.5011 115.684 19.5951 114.586 20.0023C113.488 20.3782 112.94 21.0047 112.94 21.8817C112.94 22.5082 113.269 23.0251 113.928 23.4323C114.586 23.8395 115.433 24.2154 116.468 24.56C117.535 24.8732 118.648 25.2648 119.809 25.7346C120.969 26.1732 122.067 26.7683 123.102 27.5201C124.168 28.2406 125.031 29.1959 125.69 30.3863C126.348 31.5453 126.678 33.0332 126.678 34.85ZM133.045 52C131.089 52 129.738 50.0445 130.443 48.2205C130.604 47.8055 130.765 47.3894 130.927 46.9725C131.1 46.5576 131.27 46.1437 131.439 45.7308C132.403 43.3689 132.367 40.7232 131.393 38.3652C130.405 35.9698 129.403 33.5608 128.387 31.138C126.881 27.4418 125.391 23.7925 123.917 20.1902C125.297 20.1902 126.677 20.1902 128.057 20.1902C130.532 20.1902 132.763 21.6883 133.68 23.987C133.986 24.7531 134.291 25.5236 134.597 26.2985C135.444 28.3659 136.275 30.4176 137.091 32.4537C137.844 30.4176 138.612 28.3659 139.396 26.2985C139.691 25.5201 139.984 24.7462 140.275 23.9767C141.135 21.6998 143.314 20.1902 145.748 20.1902C147.096 20.1902 148.445 20.1902 149.794 20.1902C147.693 25.4214 145.575 30.7308 143.442 36.1186C141.848 40.1819 140.254 44.2091 138.66 48.2003C137.743 50.4967 135.517 52 133.045 52ZM152.76 44.4822C150.603 44.4822 148.855 42.7338 148.855 40.5771C148.855 37.8523 148.855 35.1132 148.855 32.3597C148.855 28.2562 148.855 24.1997 148.855 20.1902C150.141 20.1902 151.442 20.1902 152.76 20.1902C153.864 20.1902 154.947 20.1902 156.007 20.1902C156.344 20.1902 156.618 20.4637 156.618 20.801C156.618 21.058 156.909 21.2109 157.129 21.077C157.839 20.6435 158.609 20.3009 159.441 20.0493C160.507 19.7047 161.652 19.5324 162.875 19.5324C164.663 19.5324 166.232 19.9396 167.58 20.7541C168.96 21.5685 170.027 22.7432 170.78 24.278C171.564 25.7816 171.956 27.5984 171.956 29.7285C171.956 32.1717 171.956 34.6307 171.956 37.1053C171.956 38.2818 171.956 39.4548 171.956 40.6242C171.956 42.7549 170.229 44.4822 168.098 44.4822C165.941 44.4822 164.193 42.7338 164.193 40.5771C164.193 39.5979 164.193 38.6129 164.193 37.6222C164.193 35.3042 164.193 33.0175 164.193 30.7622C164.193 29.5092 163.895 28.5068 163.299 27.755C162.734 26.9719 161.824 26.5804 160.57 26.5804C159.315 26.5804 158.343 26.9406 157.653 27.6611C156.963 28.3815 156.618 29.4152 156.618 30.7622C156.618 33.0175 156.618 35.3042 156.618 37.6222C156.618 38.6287 156.618 39.6294 156.618 40.6242C156.618 42.7549 154.891 44.4822 152.76 44.4822ZM172.133 32.3127C172.133 29.9321 172.62 27.849 173.592 26.0635C174.564 24.2467 175.913 22.7902 177.638 21.6938C179.363 20.5974 181.371 19.9396 183.66 19.7204C184.884 19.5864 186.153 19.6001 187.467 19.7616C189.598 20.0235 191 21.9894 191 24.1371C191 25.8119 189.225 26.9029 187.571 26.6432C186.963 26.5478 186.365 26.5112 185.778 26.5334C184.115 26.596 182.751 27.1129 181.684 28.0839C180.618 29.0237 180.085 30.4333 180.085 32.3127C180.085 34.1922 180.618 35.6174 181.684 36.5885C182.751 37.5282 184.115 38.0294 185.778 38.092C186.334 38.1025 186.898 38.053 187.469 37.9507C189.191 37.6425 191 38.7389 191 40.4883C191 42.636 189.598 44.6019 187.467 44.8639C186.153 45.0253 184.884 45.039 183.66 44.9051C181.371 44.6858 179.363 44.028 177.638 42.9316C175.913 41.8353 174.564 40.3944 173.592 38.6089C172.62 36.7921 172.133 34.6933 172.133 32.3127Z" fill="#00FFA6"/>
<path d="M21.3292 21.6041C23.5571 20.3193 26.357 21.2631 27.0545 23.7389C27.7824 26.3228 27.8749 28.4168 28.1191 29.2703C29.4229 24.5738 30.2347 20.4937 31.5292 15.7186C32.2504 13.0583 32.9731 10.4103 33.6972 7.77445C34.7381 3.9853 37.9778 1.21255 41.8811 0.755584C44.9671 0.394298 47.4293 3.26737 46.5581 6.24949C45.0747 11.3279 43.4807 16.5616 42.0867 21.5616C40.7179 26.5933 38.7252 32.6796 37.0063 38.2632C35.8073 42.1579 32.4346 45.4146 28.3788 45.0117C27.8374 44.9579 27.3046 44.876 26.7923 44.7584C25.565 44.4766 24.4558 43.7948 23.892 42.6687C21.5028 37.8967 20.57 32.4479 17.0065 26.0095C18.0342 27.8723 20.4526 32.3022 17.0065 26.0095C16.491 25.0782 15.5223 25.1157 17.4367 23.945C18.8309 23.0926 20.1129 22.3056 21.3292 21.6041Z" fill="#00FFA6"/>
</svg>
