<svg width="520" height="152" viewBox="0 0 520 152" fill="none" xmlns="http://www.w3.org/2000/svg">
<path d="M14.1308 34.138C18.8139 34.138 22.8709 37.3877 23.8832 41.9601C25.2661 48.2066 26.649 54.5165 28.032 60.89C29.9947 69.9353 31.9147 78.8953 33.792 87.77C35.7547 78.8953 37.7173 69.9353 39.68 60.89C41.1165 54.5457 42.5109 48.2643 43.8634 42.046C44.8661 37.4359 48.9398 34.138 53.6576 34.138C54.3301 34.138 55.0042 34.138 55.68 34.138C56.4067 34.138 57.1314 34.138 57.8542 34.138C62.5029 34.138 66.5392 37.3411 67.5885 41.8698C69.0377 48.1245 70.4868 54.4219 71.936 60.762C73.984 69.722 76.032 78.6393 78.08 87.514C80.0427 78.6393 81.9627 69.722 83.84 60.762C85.2156 54.482 86.5703 48.244 87.904 42.0478C88.8967 37.4356 92.9718 34.138 97.6897 34.138C98.4064 34.138 99.1232 34.138 99.84 34.138V34.138C105.165 34.138 109.123 39.0632 107.984 44.2646C105.568 55.2958 103.152 66.427 100.736 77.658C98.1537 89.6622 95.5714 101.552 92.9891 113.328C91.9836 117.913 87.9208 121.178 83.2268 121.178C81.6507 121.178 80.0631 121.178 78.464 121.178C76.8619 121.178 75.2598 121.178 73.6577 121.178C68.9835 121.178 64.9345 117.94 63.8932 113.383C62.6681 108.022 61.4237 102.642 60.16 97.242C60.0093 96.5913 59.8589 95.941 59.7087 95.2914C58.5024 90.0718 50.9817 90.11 49.8277 95.3414C49.6881 95.9744 49.5482 96.608 49.408 97.242C48.2092 102.608 47.0295 107.955 45.8689 113.283C44.8659 117.887 40.7946 121.178 36.082 121.178C34.5562 121.178 33.0249 121.178 31.488 121.178C29.9858 121.178 28.4835 121.178 26.9813 121.178C22.2872 121.178 18.2244 117.913 17.2189 113.328C14.6366 101.552 12.0543 89.6622 9.472 77.658C7.10165 66.6391 4.7313 55.7164 2.36095 44.8899C1.15188 39.3674 5.35474 34.138 11.008 34.138V34.138C12.0522 34.138 13.0932 34.138 14.1308 34.138ZM141.485 123.226C136.536 123.226 131.928 122.373 127.661 120.666C123.394 118.874 119.682 116.399 116.525 113.242C113.368 109.999 110.893 106.245 109.101 101.978C107.394 97.7113 106.541 93.0607 106.541 88.026C106.541 82.9913 107.394 78.3407 109.101 74.074C110.893 69.8073 113.368 66.0953 116.525 62.938C119.682 59.7807 123.394 57.3487 127.661 55.642C131.928 53.85 136.536 52.954 141.485 52.954C146.52 52.954 151.128 53.85 155.309 55.642C159.576 57.3487 163.288 59.7807 166.445 62.938C169.602 66.0953 172.034 69.8073 173.741 74.074C175.533 78.3407 176.429 82.9913 176.429 88.026C176.429 93.0607 175.533 97.7113 173.741 101.978C172.034 106.245 169.602 109.999 166.445 113.242C163.288 116.399 159.576 118.874 155.309 120.666C151.128 122.373 146.52 123.226 141.485 123.226ZM141.485 104.154C145.666 104.154 148.994 102.661 151.469 99.674C154.029 96.602 155.309 92.7193 155.309 88.026C155.309 83.2473 154.029 79.4073 151.469 76.506C148.994 73.5193 145.666 72.026 141.485 72.026C137.304 72.026 133.933 73.5193 131.373 76.506C128.898 79.4073 127.661 83.2473 127.661 88.026C127.661 92.7193 128.898 96.602 131.373 99.674C133.933 102.661 137.304 104.154 141.485 104.154ZM191.755 121.178C186.232 121.178 181.755 116.701 181.755 111.178C181.755 103.545 181.755 95.87 181.755 88.154C181.755 80.3747 181.755 72.6573 181.755 65.0019C181.755 59.4791 186.232 55.002 191.755 55.002C191.963 55.002 192.171 55.002 192.379 55.002C195.338 55.002 198.24 55.002 201.083 55.002C202.073 55.002 202.875 55.8043 202.875 56.794V56.794V56.794C202.875 57.5456 203.729 57.9915 204.369 57.5977C206.63 56.2066 209.119 55.128 211.835 54.362C212.473 54.182 213.122 54.0271 213.783 53.8973C218.791 52.9125 222.715 57.4612 222.715 62.5658C222.715 63.0304 222.715 63.4959 222.715 63.962V63.962C222.715 69.4409 217.766 73.2433 212.393 74.3146C210.569 74.6781 209.018 75.2806 207.739 76.122C204.496 78.17 202.875 81.5407 202.875 86.234C202.875 91.9513 202.875 97.754 202.875 103.642C202.875 106.162 202.875 108.674 202.875 111.178C202.875 116.701 198.398 121.178 192.875 121.178C192.71 121.178 192.545 121.178 192.379 121.178C192.171 121.178 191.963 121.178 191.755 121.178ZM237.775 121.178C232.252 121.178 227.775 116.701 227.775 111.178C227.775 99.0168 227.775 86.7768 227.775 74.458C227.775 62.1393 227.775 49.8992 227.775 37.738C227.775 32.2151 232.252 27.738 237.775 27.738C237.983 27.738 238.191 27.738 238.399 27.738C238.565 27.738 238.73 27.738 238.895 27.738C244.418 27.738 248.895 32.2151 248.895 37.7379C248.895 42.8486 248.895 48.006 248.895 53.21C248.895 61.8287 248.895 70.3193 248.895 78.682C251.967 74.7567 255.039 70.8313 258.111 66.906C260.184 64.1992 262.258 61.5119 264.331 58.844C266.218 56.4157 269.124 55.002 272.199 55.002C274.671 55.002 277.143 55.002 279.615 55.002V55.002C281.863 55.002 283.508 56.5217 283.657 58.7652C283.911 62.5885 282.894 66.3749 279.743 70.234C277.253 73.3462 274.779 76.4426 272.321 79.5232C269.52 83.0343 269.41 87.9813 272.028 91.6312C274.813 95.5131 277.598 99.4314 280.383 103.386C283.864 108.164 285.132 112.423 284.761 117.342C284.59 119.601 282.904 121.178 280.639 121.178V121.178C278.196 121.178 275.753 121.178 273.31 121.178C270.042 121.178 266.981 119.581 265.107 116.904C262.924 113.783 260.719 110.643 258.495 107.482C255.252 102.789 252.052 98.1807 248.895 93.658C248.895 98.1807 248.895 102.789 248.895 107.482C248.895 108.717 248.895 109.949 248.895 111.178C248.895 116.701 244.418 121.178 238.895 121.178C238.73 121.178 238.565 121.178 238.399 121.178C238.191 121.178 237.983 121.178 237.775 121.178ZM344.636 94.938C344.636 101.423 342.929 106.714 339.516 110.81C336.188 114.821 331.665 117.722 325.948 119.514C320.316 121.306 314.001 122.074 307.004 121.818C302.42 121.706 297.78 121.21 293.086 120.329C288.647 119.496 285.628 115.481 285.628 110.964C285.628 109.846 285.628 108.728 285.628 107.61V107.61C285.628 102.249 290.948 98.5403 296.169 99.7547C298.832 100.374 301.377 100.817 303.804 101.082C309.265 101.679 313.617 101.466 316.86 100.442C320.103 99.3327 321.724 97.498 321.724 94.938C321.724 93.146 320.828 91.6953 319.036 90.586C317.244 89.3913 314.897 88.3247 311.996 87.386C309.18 86.4473 306.193 85.3807 303.036 84.186C299.879 82.906 296.849 81.3273 293.948 79.45C291.132 77.4873 288.828 74.97 287.036 71.898C285.244 68.7407 284.348 64.8153 284.348 60.122C284.348 54.3193 285.884 49.4127 288.956 45.402C292.028 41.3913 296.167 38.362 301.372 36.314C306.663 34.266 312.636 33.242 319.292 33.242C323.71 33.242 328.22 33.6819 332.822 34.5616C337.207 35.4 340.156 39.3922 340.156 43.857C340.156 45.012 340.156 46.167 340.156 47.322C340.156 50.9913 340.156 54.6607 340.156 58.33C334.183 55.77 328.679 54.234 323.644 53.722C318.695 53.1247 314.727 53.3807 311.74 54.49C308.753 55.514 307.26 57.2207 307.26 59.61C307.26 61.3167 308.156 62.7247 309.948 63.834C311.74 64.9433 314.044 65.9673 316.86 66.906C319.761 67.7593 322.791 68.826 325.948 70.106C329.105 71.3007 332.092 72.922 334.908 74.97C337.809 76.9327 340.156 79.5353 341.948 82.778C343.74 85.9353 344.636 89.9887 344.636 94.938ZM361.957 141.658C356.636 141.658 352.959 136.338 354.875 131.374C355.313 130.239 355.754 129.102 356.197 127.962C357.554 124.692 358.867 121.444 360.135 118.219C361.067 115.848 361.037 113.208 360.07 110.851C356.54 102.241 352.945 93.5664 349.285 84.826C345.189 74.7567 341.136 64.8153 337.125 55.002C340.88 55.002 344.634 55.002 348.389 55.002C349.864 55.002 351.332 55.002 352.794 55.002C356.863 55.002 360.529 57.4667 362.046 61.243C363.424 64.6764 364.802 68.1428 366.181 71.642C368.485 77.274 370.746 82.8633 372.965 88.41C375.013 82.8633 377.104 77.274 379.237 71.642C380.531 68.2263 381.809 64.842 383.071 61.489C384.54 57.588 388.271 55.002 392.439 55.002C393.798 55.002 395.158 55.002 396.517 55.002C400.186 55.002 403.856 55.002 407.525 55.002C401.808 69.2527 396.048 83.7167 390.245 98.394C385.366 110.847 380.486 123.175 375.607 135.38C374.091 139.173 370.415 141.658 366.33 141.658C364.879 141.658 363.421 141.658 361.957 141.658V141.658ZM414.97 121.178C409.447 121.178 404.97 116.701 404.97 111.178C404.97 103.545 404.97 95.87 404.97 88.154C404.97 76.9753 404.97 65.9247 404.97 55.002C408.469 55.002 412.01 55.002 415.594 55.002C418.598 55.002 421.542 55.002 424.426 55.002C425.345 55.002 426.09 55.747 426.09 56.666V56.666V56.666C426.09 57.3658 426.884 57.782 427.481 57.417C429.412 56.2363 431.508 55.3033 433.77 54.618C436.671 53.6793 439.786 53.21 443.114 53.21C447.978 53.21 452.245 54.3193 455.914 56.538C459.669 58.7567 462.57 61.9567 464.618 66.138C466.751 70.234 467.818 75.1833 467.818 80.986C467.818 87.642 467.818 94.3407 467.818 101.082C467.818 104.458 467.818 107.823 467.818 111.178C467.818 116.701 463.341 121.178 457.818 121.178C457.653 121.178 457.488 121.178 457.322 121.178C457.114 121.178 456.906 121.178 456.698 121.178C451.175 121.178 446.698 116.701 446.698 111.178C446.698 108.3 446.698 105.404 446.698 102.49C446.698 96.1753 446.698 89.946 446.698 83.802C446.698 80.3887 445.887 77.658 444.266 75.61C442.73 73.4767 440.255 72.41 436.842 72.41C433.429 72.41 430.783 73.3913 428.906 75.354C427.029 77.3167 426.09 80.1327 426.09 83.802C426.09 89.946 426.09 96.1753 426.09 102.49C426.09 105.404 426.09 108.3 426.09 111.178C426.09 116.701 421.613 121.178 416.09 121.178C415.925 121.178 415.76 121.178 415.594 121.178C415.386 121.178 415.178 121.178 414.97 121.178ZM468.301 88.026C468.301 81.5407 469.624 75.866 472.269 71.002C474.914 66.0527 478.584 62.0847 483.277 59.098C487.97 56.1113 493.432 54.3193 499.661 53.722C503.726 53.2765 507.973 53.4307 512.402 54.1845C516.752 54.9248 519.629 58.9178 519.629 63.3299C519.629 64.1354 519.629 64.9434 519.629 65.754V65.754C519.629 70.3153 514.794 73.2856 510.288 72.5793C508.639 72.3209 507.017 72.2218 505.421 72.282C500.898 72.4527 497.186 73.8607 494.285 76.506C491.384 79.066 489.933 82.906 489.933 88.026C489.933 93.146 491.384 97.0287 494.285 99.674C497.186 102.234 500.898 103.599 505.421 103.77C506.932 103.799 508.46 103.664 510.011 103.387C514.701 102.549 519.629 105.534 519.629 110.298V110.298C519.629 111.109 519.629 111.917 519.629 112.722C519.629 117.134 516.752 121.127 512.402 121.868C507.973 122.621 503.726 122.776 499.661 122.33C493.432 121.733 487.97 119.941 483.277 116.954C478.584 113.967 474.914 110.042 472.269 105.178C469.624 100.229 468.301 94.5113 468.301 88.026Z" fill="url(#paint0_linear_41_54)"/>
<path d="M64.8828 55.1399C67.1873 53.994 69.962 54.9562 70.9913 57.3151C75.4625 67.5619 75.6158 76.6435 76.4999 79.738C80.047 66.9439 82.2555 55.829 85.7774 42.8206C88.7058 32.0048 91.6429 21.2631 94.5886 10.5955C95.6705 6.67724 99.0202 3.80753 103.057 3.33426C106.659 2.91199 110.287 2.48672 113.941 2.05845C114.888 1.94736 115.834 1.83646 116.778 1.72577C123.819 0.900446 129.441 7.45461 127.468 14.263C123.21 28.9548 118.545 44.2088 114.5 58.738C109.841 75.8867 102.525 97.532 97.3356 115.367C96.1965 119.282 92.856 122.227 88.7926 122.562C82.723 123.061 75.4534 123.139 69.7591 120.998C68.5731 120.552 67.5648 119.747 66.7056 118.816C64.0913 115.982 66.1258 118.49 64.9999 116.238C58.4999 103.238 55.9621 88.3944 46.2673 70.8549C55.6427 87.9976 49.0633 75.9297 46.2673 70.8549C44.8649 68.318 42.2294 68.4202 47.4379 65.231C53.9365 61.252 59.5398 57.7968 64.8828 55.1399Z" fill="#00FFA6"/>
<path d="M28.5 148.738C27.8333 148.738 27.15 148.738 26.45 148.738C25.75 148.738 25.0583 148.738 24.375 148.738C24.375 145.955 24.375 143.138 24.375 140.288C24.375 137.421 24.375 134.596 24.375 131.813C25.0583 131.813 25.75 131.813 26.45 131.813C27.15 131.813 27.8333 131.813 28.5 131.813C28.5 131.93 28.5 132.046 28.5 132.163C28.5 132.28 28.5 132.405 28.5 132.538C28.9167 132.205 29.3917 131.946 29.925 131.763C30.4583 131.563 31.025 131.463 31.625 131.463C32.4583 131.463 33.25 131.63 34 131.963C34.75 132.28 35.4083 132.738 35.975 133.338C36.5583 133.938 37.0083 134.655 37.325 135.488C37.6583 136.321 37.825 137.246 37.825 138.263C37.825 139.263 37.6583 140.18 37.325 141.013C37.0083 141.846 36.5583 142.571 35.975 143.188C35.4083 143.788 34.75 144.255 34 144.588C33.25 144.921 32.45 145.088 31.6 145.088C31 145.088 30.4333 144.988 29.9 144.788C29.3833 144.605 28.9167 144.338 28.5 143.988C28.5 144.771 28.5 145.563 28.5 146.363C28.5 147.163 28.5 147.955 28.5 148.738ZM31.05 141.438C31.8667 141.438 32.5083 141.155 32.975 140.588C33.4583 140.005 33.7 139.23 33.7 138.263C33.7 137.296 33.4583 136.53 32.975 135.963C32.5083 135.396 31.8667 135.113 31.05 135.113C30.25 135.113 29.6083 135.405 29.125 135.988C28.6417 136.555 28.4 137.313 28.4 138.263C28.4 139.213 28.6417 139.98 29.125 140.563C29.6083 141.146 30.25 141.438 31.05 141.438ZM39.6279 144.738C39.6279 142.605 39.6279 140.455 39.6279 138.288C39.6279 136.105 39.6279 133.946 39.6279 131.813C40.3113 131.813 41.0029 131.813 41.7029 131.813C42.4029 131.813 43.0863 131.813 43.7529 131.813C43.7529 131.93 43.7529 132.046 43.7529 132.163C43.7529 132.28 43.7529 132.396 43.7529 132.513C44.2696 132.146 44.8529 131.871 45.5029 131.688C46.1529 131.505 46.8613 131.455 47.6279 131.538C47.6279 132.205 47.6279 132.88 47.6279 133.563C47.6279 134.246 47.6279 134.921 47.6279 135.588C46.3113 135.405 45.3363 135.521 44.7029 135.938C44.0696 136.338 43.7529 136.996 43.7529 137.913C43.7529 139.03 43.7529 140.163 43.7529 141.313C43.7529 142.463 43.7529 143.605 43.7529 144.738C43.0863 144.738 42.4029 144.738 41.7029 144.738C41.0029 144.738 40.3113 144.738 39.6279 144.738ZM55.2441 145.138C54.2775 145.138 53.3775 144.971 52.5441 144.638C51.7108 144.288 50.9858 143.805 50.3691 143.188C49.7525 142.555 49.2691 141.821 48.9191 140.988C48.5858 140.155 48.4191 139.246 48.4191 138.263C48.4191 137.28 48.5858 136.371 48.9191 135.538C49.2691 134.705 49.7525 133.98 50.3691 133.363C50.9858 132.746 51.7108 132.271 52.5441 131.938C53.3775 131.588 54.2775 131.413 55.2441 131.413C56.2275 131.413 57.1275 131.588 57.9441 131.938C58.7775 132.271 59.5025 132.746 60.1191 133.363C60.7358 133.98 61.2108 134.705 61.5441 135.538C61.8941 136.371 62.0691 137.28 62.0691 138.263C62.0691 139.246 61.8941 140.155 61.5441 140.988C61.2108 141.821 60.7358 142.555 60.1191 143.188C59.5025 143.805 58.7775 144.288 57.9441 144.638C57.1275 144.971 56.2275 145.138 55.2441 145.138ZM55.2441 141.413C56.0608 141.413 56.7108 141.121 57.1941 140.538C57.6941 139.938 57.9441 139.18 57.9441 138.263C57.9441 137.33 57.6941 136.58 57.1941 136.013C56.7108 135.43 56.0608 135.138 55.2441 135.138C54.4275 135.138 53.7691 135.43 53.2691 136.013C52.7858 136.58 52.5441 137.33 52.5441 138.263C52.5441 139.18 52.7858 139.938 53.2691 140.538C53.7691 141.121 54.4275 141.413 55.2441 141.413ZM72.4844 144.738C72.4844 144.605 72.4844 144.48 72.4844 144.363C72.4844 144.23 72.4844 144.105 72.4844 143.988C72.0677 144.338 71.5927 144.605 71.0594 144.788C70.5427 144.988 69.9844 145.088 69.3844 145.088C68.5344 145.088 67.7344 144.921 66.9844 144.588C66.2344 144.255 65.5677 143.788 64.9844 143.188C64.4177 142.571 63.9677 141.846 63.6344 141.013C63.3177 140.18 63.1594 139.263 63.1594 138.263C63.1594 137.246 63.3177 136.321 63.6344 135.488C63.9677 134.655 64.4177 133.938 64.9844 133.338C65.5677 132.738 66.2344 132.28 66.9844 131.963C67.7344 131.63 68.526 131.463 69.3594 131.463C69.9594 131.463 70.526 131.563 71.0594 131.763C71.5927 131.946 72.0677 132.205 72.4844 132.538C72.4844 131.538 72.4844 130.53 72.4844 129.513C72.4844 128.496 72.4844 127.488 72.4844 126.488C73.1677 126.488 73.8594 126.488 74.5594 126.488C75.2594 126.488 75.9427 126.488 76.6094 126.488C76.6094 129.505 76.6094 132.546 76.6094 135.613C76.6094 138.68 76.6094 141.721 76.6094 144.738C75.9427 144.738 75.2594 144.738 74.5594 144.738C73.8594 144.738 73.1677 144.738 72.4844 144.738ZM69.9344 141.438C70.7344 141.438 71.376 141.146 71.8594 140.563C72.3427 139.98 72.5844 139.213 72.5844 138.263C72.5844 137.313 72.3427 136.555 71.8594 135.988C71.376 135.405 70.7344 135.113 69.9344 135.113C69.1177 135.113 68.4677 135.396 67.9844 135.963C67.5177 136.53 67.2844 137.296 67.2844 138.263C67.2844 139.23 67.5177 140.005 67.9844 140.588C68.4677 141.155 69.1177 141.438 69.9344 141.438ZM91.3094 131.813C91.3094 133.946 91.3094 136.105 91.3094 138.288C91.3094 140.455 91.3094 142.605 91.3094 144.738C90.6427 144.738 89.9594 144.738 89.2594 144.738C88.5594 144.738 87.8677 144.738 87.1844 144.738C87.1844 144.621 87.1844 144.513 87.1844 144.413C87.1844 144.313 87.1844 144.205 87.1844 144.088C86.7344 144.405 86.226 144.646 85.6594 144.813C85.1094 144.996 84.5094 145.088 83.8594 145.088C82.9094 145.088 82.0677 144.871 81.3344 144.438C80.6177 144.005 80.051 143.38 79.6344 142.563C79.2344 141.746 79.0344 140.78 79.0344 139.663C79.0344 138.363 79.0344 137.055 79.0344 135.738C79.0344 134.421 79.0344 133.113 79.0344 131.813C79.7177 131.813 80.4094 131.813 81.1094 131.813C81.8094 131.813 82.4927 131.813 83.1594 131.813C83.1594 133.013 83.1594 134.23 83.1594 135.463C83.1594 136.696 83.1594 137.913 83.1594 139.113C83.1594 139.78 83.3094 140.321 83.6094 140.738C83.926 141.138 84.4177 141.338 85.0844 141.338C85.751 141.338 86.2677 141.146 86.6344 140.763C87.001 140.38 87.1844 139.83 87.1844 139.113C87.1844 137.913 87.1844 136.696 87.1844 135.463C87.1844 134.23 87.1844 133.013 87.1844 131.813C87.8677 131.813 88.5594 131.813 89.2594 131.813C89.9594 131.813 90.6427 131.813 91.3094 131.813ZM95.1537 144.738C95.1537 143.205 95.1537 141.663 95.1537 140.113C95.1537 138.563 95.1537 137.03 95.1537 135.513C94.8204 135.513 94.4787 135.513 94.1287 135.513C93.7954 135.513 93.462 135.513 93.1287 135.513C93.1287 134.896 93.1287 134.28 93.1287 133.663C93.1287 133.046 93.1287 132.43 93.1287 131.813C93.462 131.813 93.7954 131.813 94.1287 131.813C94.4787 131.813 94.8204 131.813 95.1537 131.813C95.1537 131.23 95.1537 130.655 95.1537 130.088C95.1537 129.505 95.1537 128.93 95.1537 128.363C95.837 128.363 96.5287 128.363 97.2287 128.363C97.9287 128.363 98.612 128.363 99.2787 128.363C99.2787 128.93 99.2787 129.505 99.2787 130.088C99.2787 130.655 99.2787 131.23 99.2787 131.813C99.662 131.813 100.054 131.813 100.454 131.813C100.854 131.813 101.245 131.813 101.629 131.813C101.629 132.43 101.629 133.046 101.629 133.663C101.629 134.28 101.629 134.896 101.629 135.513C101.245 135.513 100.854 135.513 100.454 135.513C100.054 135.513 99.662 135.513 99.2787 135.513C99.2787 137.03 99.2787 138.563 99.2787 140.113C99.2787 141.663 99.2787 143.205 99.2787 144.738C98.612 144.738 97.9287 144.738 97.2287 144.738C96.5287 144.738 95.837 144.738 95.1537 144.738ZM105.568 130.338C105.085 130.338 104.643 130.221 104.243 129.988C103.86 129.755 103.551 129.446 103.318 129.063C103.085 128.68 102.968 128.255 102.968 127.788C102.968 127.321 103.085 126.905 103.318 126.538C103.551 126.155 103.86 125.846 104.243 125.613C104.643 125.38 105.085 125.263 105.568 125.263C106.035 125.263 106.46 125.38 106.843 125.613C107.243 125.846 107.56 126.155 107.793 126.538C108.026 126.905 108.143 127.321 108.143 127.788C108.143 128.255 108.026 128.68 107.793 129.063C107.56 129.446 107.243 129.755 106.843 129.988C106.46 130.221 106.035 130.338 105.568 130.338ZM103.493 144.738C103.493 142.605 103.493 140.455 103.493 138.288C103.493 136.105 103.493 133.946 103.493 131.813C104.176 131.813 104.868 131.813 105.568 131.813C106.268 131.813 106.951 131.813 107.618 131.813C107.618 133.946 107.618 136.105 107.618 138.288C107.618 140.455 107.618 142.605 107.618 144.738C106.951 144.738 106.268 144.738 105.568 144.738C104.868 144.738 104.176 144.738 103.493 144.738ZM113.222 144.738C112.489 142.605 111.739 140.455 110.972 138.288C110.222 136.105 109.48 133.946 108.747 131.813C109.464 131.813 110.18 131.813 110.897 131.813C111.63 131.813 112.355 131.813 113.072 131.813C113.505 133.13 113.939 134.455 114.372 135.788C114.822 137.105 115.255 138.421 115.672 139.738C116.105 138.421 116.539 137.105 116.972 135.788C117.405 134.455 117.83 133.13 118.247 131.813C118.947 131.813 119.655 131.813 120.372 131.813C121.089 131.813 121.797 131.813 122.497 131.813C121.764 133.946 121.014 136.105 120.247 138.288C119.497 140.455 118.755 142.605 118.022 144.738C117.239 144.738 116.439 144.738 115.622 144.738C114.805 144.738 114.005 144.738 113.222 144.738ZM125.698 130.338C125.215 130.338 124.773 130.221 124.373 129.988C123.99 129.755 123.681 129.446 123.448 129.063C123.215 128.68 123.098 128.255 123.098 127.788C123.098 127.321 123.215 126.905 123.448 126.538C123.681 126.155 123.99 125.846 124.373 125.613C124.773 125.38 125.215 125.263 125.698 125.263C126.165 125.263 126.59 125.38 126.973 125.613C127.373 125.846 127.69 126.155 127.923 126.538C128.156 126.905 128.273 127.321 128.273 127.788C128.273 128.255 128.156 128.68 127.923 129.063C127.69 129.446 127.373 129.755 126.973 129.988C126.59 130.221 126.165 130.338 125.698 130.338ZM123.623 144.738C123.623 142.605 123.623 140.455 123.623 138.288C123.623 136.105 123.623 133.946 123.623 131.813C124.306 131.813 124.998 131.813 125.698 131.813C126.398 131.813 127.081 131.813 127.748 131.813C127.748 133.946 127.748 136.105 127.748 138.288C127.748 140.455 127.748 142.605 127.748 144.738C127.081 144.738 126.398 144.738 125.698 144.738C124.998 144.738 124.306 144.738 123.623 144.738ZM139.002 144.738C139.002 144.605 139.002 144.48 139.002 144.363C139.002 144.23 139.002 144.105 139.002 143.988C138.585 144.338 138.11 144.605 137.577 144.788C137.06 144.988 136.502 145.088 135.902 145.088C135.052 145.088 134.252 144.921 133.502 144.588C132.752 144.255 132.085 143.788 131.502 143.188C130.935 142.571 130.485 141.846 130.152 141.013C129.835 140.18 129.677 139.263 129.677 138.263C129.677 137.246 129.835 136.321 130.152 135.488C130.485 134.655 130.935 133.938 131.502 133.338C132.085 132.738 132.752 132.28 133.502 131.963C134.252 131.63 135.044 131.463 135.877 131.463C136.477 131.463 137.044 131.563 137.577 131.763C138.11 131.946 138.585 132.205 139.002 132.538C139.002 131.538 139.002 130.53 139.002 129.513C139.002 128.496 139.002 127.488 139.002 126.488C139.685 126.488 140.377 126.488 141.077 126.488C141.777 126.488 142.46 126.488 143.127 126.488C143.127 129.505 143.127 132.546 143.127 135.613C143.127 138.68 143.127 141.721 143.127 144.738C142.46 144.738 141.777 144.738 141.077 144.738C140.377 144.738 139.685 144.738 139.002 144.738ZM136.452 141.438C137.252 141.438 137.894 141.146 138.377 140.563C138.86 139.98 139.102 139.213 139.102 138.263C139.102 137.313 138.86 136.555 138.377 135.988C137.894 135.405 137.252 135.113 136.452 135.113C135.635 135.113 134.985 135.396 134.502 135.963C134.035 136.53 133.802 137.296 133.802 138.263C133.802 139.23 134.035 140.005 134.502 140.588C134.985 141.155 135.635 141.438 136.452 141.438ZM154.377 144.738C154.377 144.605 154.377 144.48 154.377 144.363C154.377 144.23 154.377 144.105 154.377 143.988C153.96 144.338 153.485 144.605 152.952 144.788C152.435 144.988 151.877 145.088 151.277 145.088C150.427 145.088 149.627 144.93 148.877 144.613C148.127 144.28 147.46 143.813 146.877 143.213C146.31 142.596 145.86 141.871 145.527 141.038C145.21 140.205 145.052 139.28 145.052 138.263C145.052 137.23 145.21 136.296 145.527 135.463C145.86 134.63 146.31 133.921 146.877 133.338C147.46 132.738 148.127 132.28 148.877 131.963C149.627 131.63 150.419 131.463 151.252 131.463C151.852 131.463 152.419 131.563 152.952 131.763C153.485 131.946 153.96 132.205 154.377 132.538C154.377 132.405 154.377 132.28 154.377 132.163C154.377 132.046 154.377 131.93 154.377 131.813C155.06 131.813 155.752 131.813 156.452 131.813C157.152 131.813 157.835 131.813 158.502 131.813C158.502 133.946 158.502 136.105 158.502 138.288C158.502 140.455 158.502 142.605 158.502 144.738C157.835 144.738 157.152 144.738 156.452 144.738C155.752 144.738 155.06 144.738 154.377 144.738ZM151.827 141.438C152.627 141.438 153.269 141.146 153.752 140.563C154.235 139.98 154.477 139.213 154.477 138.263C154.477 137.313 154.235 136.555 153.752 135.988C153.269 135.405 152.627 135.113 151.827 135.113C151.01 135.113 150.36 135.396 149.877 135.963C149.41 136.53 149.177 137.296 149.177 138.263C149.177 139.23 149.41 140.005 149.877 140.588C150.36 141.155 151.01 141.438 151.827 141.438ZM169.63 144.738C169.63 144.605 169.63 144.48 169.63 144.363C169.63 144.23 169.63 144.105 169.63 143.988C169.213 144.338 168.738 144.605 168.205 144.788C167.688 144.988 167.13 145.088 166.53 145.088C165.68 145.088 164.88 144.921 164.13 144.588C163.38 144.255 162.713 143.788 162.13 143.188C161.563 142.571 161.113 141.846 160.78 141.013C160.463 140.18 160.305 139.263 160.305 138.263C160.305 137.246 160.463 136.321 160.78 135.488C161.113 134.655 161.563 133.938 162.13 133.338C162.713 132.738 163.38 132.28 164.13 131.963C164.88 131.63 165.672 131.463 166.505 131.463C167.105 131.463 167.672 131.563 168.205 131.763C168.738 131.946 169.213 132.205 169.63 132.538C169.63 131.538 169.63 130.53 169.63 129.513C169.63 128.496 169.63 127.488 169.63 126.488C170.313 126.488 171.005 126.488 171.705 126.488C172.405 126.488 173.088 126.488 173.755 126.488C173.755 129.505 173.755 132.546 173.755 135.613C173.755 138.68 173.755 141.721 173.755 144.738C173.088 144.738 172.405 144.738 171.705 144.738C171.005 144.738 170.313 144.738 169.63 144.738ZM167.08 141.438C167.88 141.438 168.522 141.146 169.005 140.563C169.488 139.98 169.73 139.213 169.73 138.263C169.73 137.313 169.488 136.555 169.005 135.988C168.522 135.405 167.88 135.113 167.08 135.113C166.263 135.113 165.613 135.396 165.13 135.963C164.663 136.53 164.43 137.296 164.43 138.263C164.43 139.23 164.663 140.005 165.13 140.588C165.613 141.155 166.263 141.438 167.08 141.438ZM187.505 144.138C186.355 144.621 185.213 144.921 184.08 145.038C182.947 145.155 181.872 145.088 180.855 144.838C179.855 144.605 178.963 144.196 178.18 143.613C177.397 143.03 176.78 142.288 176.33 141.388C175.897 140.488 175.68 139.446 175.68 138.263C175.68 137.28 175.838 136.38 176.155 135.563C176.488 134.73 176.955 134.005 177.555 133.388C178.155 132.755 178.863 132.271 179.68 131.938C180.497 131.588 181.388 131.413 182.355 131.413C183.222 131.413 184.005 131.555 184.705 131.838C185.405 132.121 186.013 132.521 186.53 133.038C187.047 133.538 187.463 134.138 187.78 134.838C188.097 135.538 188.297 136.305 188.38 137.138C188.463 137.971 188.413 138.855 188.23 139.788C186.863 139.788 185.488 139.788 184.105 139.788C182.722 139.788 181.347 139.788 179.98 139.788C180.297 140.421 180.822 140.871 181.555 141.138C182.305 141.405 183.188 141.488 184.205 141.388C185.238 141.288 186.338 141.021 187.505 140.588C187.505 141.171 187.505 141.763 187.505 142.363C187.505 142.963 187.505 143.555 187.505 144.138ZM182.255 135.113C181.772 135.113 181.322 135.246 180.905 135.513C180.505 135.78 180.197 136.188 179.98 136.738C180.73 136.738 181.48 136.738 182.23 136.738C182.997 136.738 183.755 136.738 184.505 136.738C184.305 136.171 184.005 135.763 183.605 135.513C183.222 135.246 182.772 135.113 182.255 135.113ZM206.438 144.138C205.288 144.621 204.147 144.921 203.013 145.038C201.88 145.155 200.805 145.088 199.788 144.838C198.788 144.605 197.897 144.196 197.113 143.613C196.33 143.03 195.713 142.288 195.263 141.388C194.83 140.488 194.613 139.446 194.613 138.263C194.613 137.28 194.772 136.38 195.088 135.563C195.422 134.73 195.888 134.005 196.488 133.388C197.088 132.755 197.797 132.271 198.613 131.938C199.43 131.588 200.322 131.413 201.288 131.413C202.155 131.413 202.938 131.555 203.638 131.838C204.338 132.121 204.947 132.521 205.463 133.038C205.98 133.538 206.397 134.138 206.713 134.838C207.03 135.538 207.23 136.305 207.313 137.138C207.397 137.971 207.347 138.855 207.163 139.788C205.797 139.788 204.422 139.788 203.038 139.788C201.655 139.788 200.28 139.788 198.913 139.788C199.23 140.421 199.755 140.871 200.488 141.138C201.238 141.405 202.122 141.488 203.138 141.388C204.172 141.288 205.272 141.021 206.438 140.588C206.438 141.171 206.438 141.763 206.438 142.363C206.438 142.963 206.438 143.555 206.438 144.138ZM201.188 135.113C200.705 135.113 200.255 135.246 199.838 135.513C199.438 135.78 199.13 136.188 198.913 136.738C199.663 136.738 200.413 136.738 201.163 136.738C201.93 136.738 202.688 136.738 203.438 136.738C203.238 136.171 202.938 135.763 202.538 135.513C202.155 135.246 201.705 135.113 201.188 135.113ZM209.248 144.738C209.248 142.605 209.248 140.455 209.248 138.288C209.248 136.105 209.248 133.946 209.248 131.813C209.931 131.813 210.623 131.813 211.323 131.813C212.023 131.813 212.706 131.813 213.373 131.813C213.373 131.93 213.373 132.038 213.373 132.138C213.373 132.238 213.373 132.346 213.373 132.463C213.806 132.146 214.29 131.905 214.823 131.738C215.356 131.555 215.906 131.463 216.473 131.463C217.09 131.463 217.656 131.571 218.173 131.788C218.69 131.988 219.131 132.288 219.498 132.688C220.031 132.305 220.631 132.005 221.298 131.788C221.981 131.571 222.681 131.463 223.398 131.463C224.415 131.463 225.29 131.671 226.023 132.088C226.773 132.505 227.348 133.096 227.748 133.863C228.165 134.63 228.373 135.555 228.373 136.638C228.373 137.971 228.373 139.321 228.373 140.688C228.373 142.055 228.373 143.405 228.373 144.738C227.706 144.738 227.023 144.738 226.323 144.738C225.623 144.738 224.931 144.738 224.248 144.738C224.248 143.488 224.248 142.221 224.248 140.938C224.248 139.655 224.248 138.388 224.248 137.138C224.248 136.571 224.115 136.113 223.848 135.763C223.598 135.396 223.19 135.213 222.623 135.213C222.073 135.213 221.64 135.388 221.323 135.738C221.023 136.071 220.873 136.538 220.873 137.138C220.873 138.388 220.873 139.655 220.873 140.938C220.873 142.221 220.873 143.488 220.873 144.738C220.206 144.738 219.523 144.738 218.823 144.738C218.123 144.738 217.431 144.738 216.748 144.738C216.748 143.488 216.748 142.221 216.748 140.938C216.748 139.655 216.748 138.388 216.748 137.138C216.748 136.571 216.615 136.113 216.348 135.763C216.098 135.396 215.69 135.213 215.123 135.213C214.573 135.213 214.14 135.388 213.823 135.738C213.523 136.071 213.373 136.538 213.373 137.138C213.373 138.388 213.373 139.655 213.373 140.938C213.373 142.221 213.373 143.488 213.373 144.738C212.706 144.738 212.023 144.738 211.323 144.738C210.623 144.738 209.931 144.738 209.248 144.738ZM235.802 144.738C235.802 141.721 235.802 138.68 235.802 135.613C235.802 132.546 235.802 129.505 235.802 126.488C236.485 126.488 237.177 126.488 237.877 126.488C238.577 126.488 239.26 126.488 239.927 126.488C239.927 127.471 239.927 128.471 239.927 129.488C239.927 130.488 239.927 131.48 239.927 132.463C240.377 132.146 240.877 131.905 241.427 131.738C241.993 131.555 242.602 131.463 243.252 131.463C244.202 131.463 245.035 131.68 245.752 132.113C246.485 132.546 247.052 133.171 247.452 133.988C247.868 134.788 248.077 135.755 248.077 136.888C248.077 138.188 248.077 139.496 248.077 140.813C248.077 142.13 248.077 143.438 248.077 144.738C247.41 144.738 246.727 144.738 246.027 144.738C245.327 144.738 244.635 144.738 243.952 144.738C243.952 143.538 243.952 142.321 243.952 141.088C243.952 139.855 243.952 138.638 243.952 137.438C243.952 136.771 243.793 136.238 243.477 135.838C243.177 135.421 242.693 135.213 242.027 135.213C241.36 135.213 240.843 135.405 240.477 135.788C240.11 136.171 239.927 136.721 239.927 137.438C239.927 138.638 239.927 139.855 239.927 141.088C239.927 142.321 239.927 143.538 239.927 144.738C239.26 144.738 238.577 144.738 237.877 144.738C237.177 144.738 236.485 144.738 235.802 144.738ZM259.018 144.738C259.018 144.605 259.018 144.48 259.018 144.363C259.018 144.23 259.018 144.105 259.018 143.988C258.601 144.338 258.126 144.605 257.593 144.788C257.076 144.988 256.518 145.088 255.918 145.088C255.068 145.088 254.268 144.93 253.518 144.613C252.768 144.28 252.101 143.813 251.518 143.213C250.951 142.596 250.501 141.871 250.168 141.038C249.851 140.205 249.693 139.28 249.693 138.263C249.693 137.23 249.851 136.296 250.168 135.463C250.501 134.63 250.951 133.921 251.518 133.338C252.101 132.738 252.768 132.28 253.518 131.963C254.268 131.63 255.059 131.463 255.893 131.463C256.493 131.463 257.059 131.563 257.593 131.763C258.126 131.946 258.601 132.205 259.018 132.538C259.018 132.405 259.018 132.28 259.018 132.163C259.018 132.046 259.018 131.93 259.018 131.813C259.701 131.813 260.393 131.813 261.093 131.813C261.793 131.813 262.476 131.813 263.143 131.813C263.143 133.946 263.143 136.105 263.143 138.288C263.143 140.455 263.143 142.605 263.143 144.738C262.476 144.738 261.793 144.738 261.093 144.738C260.393 144.738 259.701 144.738 259.018 144.738ZM256.468 141.438C257.268 141.438 257.909 141.146 258.393 140.563C258.876 139.98 259.118 139.213 259.118 138.263C259.118 137.313 258.876 136.555 258.393 135.988C257.909 135.405 257.268 135.113 256.468 135.113C255.651 135.113 255.001 135.396 254.518 135.963C254.051 136.53 253.818 137.296 253.818 138.263C253.818 139.23 254.051 140.005 254.518 140.588C255.001 141.155 255.651 141.438 256.468 141.438ZM265.646 144.738C265.646 142.605 265.646 140.455 265.646 138.288C265.646 136.105 265.646 133.946 265.646 131.813C266.329 131.813 267.021 131.813 267.721 131.813C268.421 131.813 269.104 131.813 269.771 131.813C269.771 131.93 269.771 132.046 269.771 132.163C269.771 132.28 269.771 132.396 269.771 132.513C270.287 132.146 270.871 131.871 271.521 131.688C272.171 131.505 272.879 131.455 273.646 131.538C273.646 132.205 273.646 132.88 273.646 133.563C273.646 134.246 273.646 134.921 273.646 135.588C272.329 135.405 271.354 135.521 270.721 135.938C270.087 136.338 269.771 136.996 269.771 137.913C269.771 139.03 269.771 140.163 269.771 141.313C269.771 142.463 269.771 143.605 269.771 144.738C269.104 144.738 268.421 144.738 267.721 144.738C267.021 144.738 266.329 144.738 265.646 144.738ZM275.259 144.738C275.259 142.605 275.259 140.455 275.259 138.288C275.259 136.105 275.259 133.946 275.259 131.813C275.942 131.813 276.634 131.813 277.334 131.813C278.034 131.813 278.717 131.813 279.384 131.813C279.384 131.93 279.384 132.038 279.384 132.138C279.384 132.238 279.384 132.346 279.384 132.463C279.817 132.146 280.3 131.905 280.834 131.738C281.367 131.555 281.917 131.463 282.484 131.463C283.1 131.463 283.667 131.571 284.184 131.788C284.7 131.988 285.142 132.288 285.509 132.688C286.042 132.305 286.642 132.005 287.309 131.788C287.992 131.571 288.692 131.463 289.409 131.463C290.425 131.463 291.3 131.671 292.034 132.088C292.784 132.505 293.359 133.096 293.759 133.863C294.175 134.63 294.384 135.555 294.384 136.638C294.384 137.971 294.384 139.321 294.384 140.688C294.384 142.055 294.384 143.405 294.384 144.738C293.717 144.738 293.034 144.738 292.334 144.738C291.634 144.738 290.942 144.738 290.259 144.738C290.259 143.488 290.259 142.221 290.259 140.938C290.259 139.655 290.259 138.388 290.259 137.138C290.259 136.571 290.125 136.113 289.859 135.763C289.609 135.396 289.2 135.213 288.634 135.213C288.084 135.213 287.65 135.388 287.334 135.738C287.034 136.071 286.884 136.538 286.884 137.138C286.884 138.388 286.884 139.655 286.884 140.938C286.884 142.221 286.884 143.488 286.884 144.738C286.217 144.738 285.534 144.738 284.834 144.738C284.134 144.738 283.442 144.738 282.759 144.738C282.759 143.488 282.759 142.221 282.759 140.938C282.759 139.655 282.759 138.388 282.759 137.138C282.759 136.571 282.625 136.113 282.359 135.763C282.109 135.396 281.7 135.213 281.134 135.213C280.584 135.213 280.15 135.388 279.834 135.738C279.534 136.071 279.384 136.538 279.384 137.138C279.384 138.388 279.384 139.655 279.384 140.938C279.384 142.221 279.384 143.488 279.384 144.738C278.717 144.738 278.034 144.738 277.334 144.738C276.634 144.738 275.942 144.738 275.259 144.738ZM302.813 145.138C301.847 145.138 300.947 144.971 300.113 144.638C299.28 144.288 298.555 143.805 297.938 143.188C297.322 142.555 296.838 141.821 296.488 140.988C296.155 140.155 295.988 139.246 295.988 138.263C295.988 137.28 296.155 136.371 296.488 135.538C296.838 134.705 297.322 133.98 297.938 133.363C298.555 132.746 299.28 132.271 300.113 131.938C300.947 131.588 301.847 131.413 302.813 131.413C303.797 131.413 304.697 131.588 305.513 131.938C306.347 132.271 307.072 132.746 307.688 133.363C308.305 133.98 308.78 134.705 309.113 135.538C309.463 136.371 309.638 137.28 309.638 138.263C309.638 139.246 309.463 140.155 309.113 140.988C308.78 141.821 308.305 142.555 307.688 143.188C307.072 143.805 306.347 144.288 305.513 144.638C304.697 144.971 303.797 145.138 302.813 145.138ZM302.813 141.413C303.63 141.413 304.28 141.121 304.763 140.538C305.263 139.938 305.513 139.18 305.513 138.263C305.513 137.33 305.263 136.58 304.763 136.013C304.28 135.43 303.63 135.138 302.813 135.138C301.997 135.138 301.338 135.43 300.838 136.013C300.355 136.58 300.113 137.33 300.113 138.263C300.113 139.18 300.355 139.938 300.838 140.538C301.338 141.121 301.997 141.413 302.813 141.413ZM311.429 144.738C311.429 142.605 311.429 140.455 311.429 138.288C311.429 136.105 311.429 133.946 311.429 131.813C312.112 131.813 312.804 131.813 313.504 131.813C314.204 131.813 314.887 131.813 315.554 131.813C315.554 131.93 315.554 132.038 315.554 132.138C315.554 132.238 315.554 132.346 315.554 132.463C316.004 132.146 316.504 131.905 317.054 131.738C317.62 131.555 318.229 131.463 318.879 131.463C319.829 131.463 320.662 131.68 321.379 132.113C322.112 132.546 322.679 133.171 323.079 133.988C323.495 134.788 323.704 135.755 323.704 136.888C323.704 138.188 323.704 139.496 323.704 140.813C323.704 142.13 323.704 143.438 323.704 144.738C323.037 144.738 322.354 144.738 321.654 144.738C320.954 144.738 320.262 144.738 319.579 144.738C319.579 143.538 319.579 142.321 319.579 141.088C319.579 139.855 319.579 138.638 319.579 137.438C319.579 136.771 319.42 136.238 319.104 135.838C318.804 135.421 318.32 135.213 317.654 135.213C316.987 135.213 316.47 135.405 316.104 135.788C315.737 136.171 315.554 136.721 315.554 137.438C315.554 138.638 315.554 139.855 315.554 141.088C315.554 142.321 315.554 143.538 315.554 144.738C314.887 144.738 314.204 144.738 313.504 144.738C312.804 144.738 312.112 144.738 311.429 144.738ZM328.198 130.338C327.715 130.338 327.273 130.221 326.873 129.988C326.49 129.755 326.181 129.446 325.948 129.063C325.715 128.68 325.598 128.255 325.598 127.788C325.598 127.321 325.715 126.905 325.948 126.538C326.181 126.155 326.49 125.846 326.873 125.613C327.273 125.38 327.715 125.263 328.198 125.263C328.665 125.263 329.09 125.38 329.473 125.613C329.873 125.846 330.19 126.155 330.423 126.538C330.656 126.905 330.773 127.321 330.773 127.788C330.773 128.255 330.656 128.68 330.423 129.063C330.19 129.446 329.873 129.755 329.473 129.988C329.09 130.221 328.665 130.338 328.198 130.338ZM326.123 144.738C326.123 142.605 326.123 140.455 326.123 138.288C326.123 136.105 326.123 133.946 326.123 131.813C326.806 131.813 327.498 131.813 328.198 131.813C328.898 131.813 329.581 131.813 330.248 131.813C330.248 133.946 330.248 136.105 330.248 138.288C330.248 140.455 330.248 142.605 330.248 144.738C329.581 144.738 328.898 144.738 328.198 144.738C327.498 144.738 326.806 144.738 326.123 144.738ZM341.502 144.738C341.502 144.605 341.502 144.48 341.502 144.363C341.502 144.23 341.502 144.105 341.502 143.988C341.085 144.338 340.61 144.605 340.077 144.788C339.56 144.988 339.002 145.088 338.402 145.088C337.552 145.088 336.752 144.93 336.002 144.613C335.252 144.28 334.585 143.813 334.002 143.213C333.435 142.596 332.985 141.871 332.652 141.038C332.335 140.205 332.177 139.28 332.177 138.263C332.177 137.23 332.335 136.296 332.652 135.463C332.985 134.63 333.435 133.921 334.002 133.338C334.585 132.738 335.252 132.28 336.002 131.963C336.752 131.63 337.544 131.463 338.377 131.463C338.977 131.463 339.544 131.563 340.077 131.763C340.61 131.946 341.085 132.205 341.502 132.538C341.502 132.405 341.502 132.28 341.502 132.163C341.502 132.046 341.502 131.93 341.502 131.813C342.185 131.813 342.877 131.813 343.577 131.813C344.277 131.813 344.96 131.813 345.627 131.813C345.627 133.946 345.627 136.105 345.627 138.288C345.627 140.455 345.627 142.605 345.627 144.738C344.96 144.738 344.277 144.738 343.577 144.738C342.877 144.738 342.185 144.738 341.502 144.738ZM338.952 141.438C339.752 141.438 340.394 141.146 340.877 140.563C341.36 139.98 341.602 139.213 341.602 138.263C341.602 137.313 341.36 136.555 340.877 135.988C340.394 135.405 339.752 135.113 338.952 135.113C338.135 135.113 337.485 135.396 337.002 135.963C336.535 136.53 336.302 137.296 336.302 138.263C336.302 139.23 336.535 140.005 337.002 140.588C337.485 141.155 338.135 141.438 338.952 141.438Z" fill="#4B66FF"/>
<defs>
<linearGradient id="paint0_linear_41_54" x1="-66" y1="-12.822" x2="578" y2="208.178" gradientUnits="userSpaceOnUse">
<stop stop-color="#00E6FF"/>
<stop offset="0.993624" stop-color="#8109FF"/>
</linearGradient>
</defs>
</svg>
